<svg xmlns="http://www.w3.org/2000/svg" viewBox="-0.47 -0.47 725.84 92.35">
  <path fill="#333" fill-rule="evenodd" stroke="#333" stroke-linecap="round" stroke-width=".25mm" d="M12.8 71.4H0v-70h24.5l12.1 61h1.8l12.1-61H75v70H62.2V11.1h-1.8l-12 60.3H26.6l-12-60.3h-1.8v60.3Zm491.3 20h-31.2v-11h27a3.738 3.738 0 0 0 1.142-.159q1.216-.39 1.54-1.736a4.73 4.73 0 0 0 .118-1.105V64.9h-1.8q-.746 1.586-2.275 3.171a17.686 17.686 0 0 1-.225.229 10.614 10.614 0 0 1-1.996 1.548q-.971.592-2.157 1.077a18.843 18.843 0 0 1-.447.175q-2.219.842-5.373 1.04a32.431 32.431 0 0 1-2.027.06q-5.8 0-10.15-2.65-4.35-2.65-6.75-7.35-2.4-4.7-2.4-10.8V21.8h12.6v28.6a18.168 18.168 0 0 0 .255 3.153q.583 3.301 2.495 5.247 2.575 2.622 7.209 2.789a17.78 17.78 0 0 0 .641.011q5.8 0 9-3.85 2.698-3.246 3.121-8.66A26.827 26.827 0 0 0 502.5 47V21.8h12.6v58.4a14.042 14.042 0 0 1-.422 3.537 10.054 10.054 0 0 1-2.578 4.613q-3 3.05-8 3.05Zm-89.4-20h-13.2v-70h13.2v28.9h26V1.4h13.2v70h-13.2V42.3h-26v29.1Zm-228.3 0h-12.6v-70h12.6v26.5h1.8a9.428 9.428 0 0 1 .948-1.5q.517-.677 1.196-1.354a16.886 16.886 0 0 1 .356-.346 10.792 10.792 0 0 1 1.917-1.421q.945-.558 2.093-1.02a19.355 19.355 0 0 1 .54-.209 15.127 15.127 0 0 1 2.517-.67q1.288-.234 2.789-.324A32.602 32.602 0 0 1 202.5 21q5.8 0 10.15 2.65 4.35 2.65 6.75 7.3 2.4 4.65 2.4 10.85v29.6h-12.6V42.8a18.168 18.168 0 0 0-.255-3.152q-.583-3.301-2.495-5.248-2.575-2.621-7.209-2.788a17.78 17.78 0 0 0-.641-.012q-5.8 0-9 3.85-2.698 3.246-3.121 8.661a26.827 26.827 0 0 0-.079 2.089v25.2Zm439.7 0h-12.6V21.8h12.4v6.5h1.8a9.774 9.774 0 0 1 1.452-2.227q.745-.875 1.749-1.72a20.423 20.423 0 0 1 1.299-1.003 10.629 10.629 0 0 1 2.882-1.409q2.697-.881 6.589-.937A37.06 37.06 0 0 1 642.2 21q5.8 0 10.15 2.65 4.35 2.65 6.75 7.3 2.4 4.65 2.4 10.85v29.6h-12.6V42.8a18.168 18.168 0 0 0-.255-3.152q-.583-3.301-2.495-5.248-2.575-2.621-7.209-2.788a17.78 17.78 0 0 0-.641-.012q-5.8 0-9 3.85-2.698 3.246-3.121 8.661a26.827 26.827 0 0 0-.079 2.089v25.2ZM112.8 47.3v-1.4q0-8.1 3.4-13.8 3.4-5.7 9.25-8.7a27.478 27.478 0 0 1 10.724-2.919 33.058 33.058 0 0 1 2.326-.081q6.815 0 11.788 2.304a20.803 20.803 0 0 1 .412.196 22.22 22.22 0 0 1 6.89 5.16 21.315 21.315 0 0 1 1.36 1.69q3.15 4.35 4.15 9.85l-12.2 2.6a14.977 14.977 0 0 0-1.023-3.841 13.373 13.373 0 0 0-.777-1.559q-1.4-2.4-3.95-3.8-2.306-1.266-5.634-1.387a19.679 19.679 0 0 0-.716-.013 15.085 15.085 0 0 0-4.248.582 13.27 13.27 0 0 0-2.602 1.068 11.641 11.641 0 0 0-4.576 4.5 14.038 14.038 0 0 0-.224.4 13.994 13.994 0 0 0-1.362 3.847q-.34 1.655-.382 3.555a24.569 24.569 0 0 0-.006.548v1q0 4.264 1.44 7.335a12.453 12.453 0 0 0 .31.615 12.211 12.211 0 0 0 2.776 3.508 11.406 11.406 0 0 0 2.024 1.392 13.805 13.805 0 0 0 5.623 1.606 16.704 16.704 0 0 0 1.227.044 17.627 17.627 0 0 0 3.294-.288q3.328-.633 5.356-2.662a12.872 12.872 0 0 0 3.086-5.063 17.191 17.191 0 0 0 .664-2.687l12.2 2.9q-1.3 5.3-4.45 9.65a21.792 21.792 0 0 1-7.933 6.692 25.411 25.411 0 0 1-.317.158 23.504 23.504 0 0 1-5.983 1.951q-2.686.511-5.751.547a39.773 39.773 0 0 1-.466.002 29.817 29.817 0 0 1-8.448-1.164 26.341 26.341 0 0 1-4.602-1.836q-5.85-3-9.25-8.7-3.4-5.7-3.4-13.8Zm138.6-5.9H265v-2.8a9.122 9.122 0 0 0-.392-2.73 7.431 7.431 0 0 0-1.808-3.02q-1.666-1.704-4.823-2.117a16.794 16.794 0 0 0-2.177-.133 16.355 16.355 0 0 0-2.579.19q-1.355.217-2.433.682a6.86 6.86 0 0 0-1.988 1.278 9.906 9.906 0 0 0-2.742 4.518 12.495 12.495 0 0 0-.258 1.032l-11.6-3.9q1.2-3.8 3.85-6.95 2.65-3.15 7.1-5.1 3.859-1.691 9.184-1.915A39.537 39.537 0 0 1 256 20.4a31.782 31.782 0 0 1 6.253.579q5.506 1.106 9.247 4.321 5.7 4.9 5.7 14.2V58q0 2.553 2.027 2.934A4.192 4.192 0 0 0 280 61h4v10.4h-8.4a12.506 12.506 0 0 1-2.692-.274A8.73 8.73 0 0 1 269.5 69.6q-2.319-1.739-2.397-4.599a7.351 7.351 0 0 1-.003-.201v-.1h-1.9a6.368 6.368 0 0 1-.326.779q-.49 1-1.474 2.371-1.129 1.573-3.3 2.854a18.089 18.089 0 0 1-1.1.596 12.218 12.218 0 0 1-2.559.914q-1.27.312-2.783.458a29.834 29.834 0 0 1-2.858.128 26.041 26.041 0 0 1-5.321-.522 20.928 20.928 0 0 1-4.179-1.328 15.975 15.975 0 0 1-4.854-3.253 14.986 14.986 0 0 1-1.796-2.147 13.64 13.64 0 0 1-2.186-5.47 18.426 18.426 0 0 1-.264-3.18q0-5.1 2.45-8.55a14.446 14.446 0 0 1 5.236-4.484 18.027 18.027 0 0 1 1.564-.716 23.776 23.776 0 0 1 5.606-1.461 31.413 31.413 0 0 1 4.344-.289Zm320.3 0h13.6v-2.8a9.122 9.122 0 0 0-.392-2.73 7.431 7.431 0 0 0-1.808-3.02q-1.666-1.704-4.823-2.117a16.794 16.794 0 0 0-2.177-.133 16.355 16.355 0 0 0-2.579.19q-1.355.217-2.433.682a6.86 6.86 0 0 0-1.988 1.278 9.906 9.906 0 0 0-2.742 4.518 12.495 12.495 0 0 0-.258 1.032l-11.6-3.9q1.2-3.8 3.85-6.95 2.65-3.15 7.1-5.1 3.859-1.691 9.184-1.915a39.537 39.537 0 0 1 1.666-.035 31.782 31.782 0 0 1 6.253.579q5.506 1.106 9.247 4.321 5.7 4.9 5.7 14.2V58q0 2.553 2.027 2.934a4.192 4.192 0 0 0 .773.066h4v10.4h-8.4a12.506 12.506 0 0 1-2.692-.274A8.73 8.73 0 0 1 589.8 69.6q-2.319-1.739-2.397-4.599a7.351 7.351 0 0 1-.003-.201v-.1h-1.9a6.368 6.368 0 0 1-.326.779q-.49 1-1.474 2.371-1.129 1.573-3.3 2.854a18.089 18.089 0 0 1-1.1.596 12.218 12.218 0 0 1-2.559.914q-1.27.312-2.783.458a29.834 29.834 0 0 1-2.858.128 26.041 26.041 0 0 1-5.321-.522 20.928 20.928 0 0 1-4.179-1.328 15.975 15.975 0 0 1-4.854-3.253 14.986 14.986 0 0 1-1.796-2.147 13.64 13.64 0 0 1-2.186-5.47 18.426 18.426 0 0 1-.264-3.18q0-5.1 2.45-8.55a14.446 14.446 0 0 1 5.236-4.484 18.027 18.027 0 0 1 1.564-.716 23.776 23.776 0 0 1 5.606-1.461 31.413 31.413 0 0 1 4.344-.289Zm101 6v-1.6q0-7.807 2.88-13.385a21.877 21.877 0 0 1 .22-.415 23.337 23.337 0 0 1 4.12-5.542A20.291 20.291 0 0 1 684 23.35q5.1-2.95 11.1-2.95a32.087 32.087 0 0 1 3.171.148q1.546.154 2.87.468a15.927 15.927 0 0 1 1.509.434q2.654.914 4.437 2.244a11.085 11.085 0 0 1 .513.406 14.368 14.368 0 0 1 1.629 1.597A10.777 10.777 0 0 1 710.5 27.5h1.8V1.4h12.6v70h-12.4v-6h-1.8q-1.541 2.538-4.601 4.665a24.059 24.059 0 0 1-.649.435 12.164 12.164 0 0 1-3.12 1.402q-1.536.463-3.411.688a32.228 32.228 0 0 1-3.819.21q-5.9 0-11.05-2.95a21.015 21.015 0 0 1-7.231-6.935A25.718 25.718 0 0 1 675.8 61.2q-3.014-5.541-3.098-13.351a41.812 41.812 0 0 1-.002-.449Zm-382.9-.2V46a33.07 33.07 0 0 1 .659-6.755 24.967 24.967 0 0 1 2.441-6.795q3.1-5.75 8.7-8.9a24.421 24.421 0 0 1 8.765-2.872 31.365 31.365 0 0 1 4.235-.278 27.731 27.731 0 0 1 6.426.715 21.906 21.906 0 0 1 6.274 2.535q5.4 3.25 8.4 9t3 13.35v4.3h-36.1a12.275 12.275 0 0 0 .928 4.348A10.992 10.992 0 0 0 306.4 58.6q3.6 3.2 8.8 3.2 3.238 0 5.43-.858A7.485 7.485 0 0 0 323 59.5a17.06 17.06 0 0 0 2.751-3.213A14.94 14.94 0 0 0 326.8 54.4l10.3 5.4a24.239 24.239 0 0 1-1.404 2.274q-1.114 1.613-2.646 3.376-2.65 3.05-7.05 5.2-3.607 1.763-8.828 2.081a39.09 39.09 0 0 1-2.372.069q-7.4 0-13.05-3.15t-8.8-8.9a25.174 25.174 0 0 1-2.707-7.988 33.552 33.552 0 0 1-.443-5.562Zm72.7 24.2h-12.6v-70h12.6v70Zm179.2 0h-12.6v-70h12.6v70Zm-440.5 0H88.6V21.8h12.6v49.6Zm611.3-24.3v-1q0-7.2-3.85-10.95a13.092 13.092 0 0 0-8.395-3.698 17.497 17.497 0 0 0-1.355-.052 14.792 14.792 0 0 0-5.02.824 13.037 13.037 0 0 0-4.68 2.926 11.98 11.98 0 0 0-3.154 5.311q-.746 2.489-.746 5.639v1a21.225 21.225 0 0 0 .4 4.259q.518 2.524 1.704 4.457a11.254 11.254 0 0 0 1.796 2.234 13.301 13.301 0 0 0 8.982 3.736 17.408 17.408 0 0 0 .718.014 14.792 14.792 0 0 0 5.02-.824 13.037 13.037 0 0 0 4.68-2.926 11.98 11.98 0 0 0 3.154-5.31q.746-2.49.746-5.64Zm-409.8-6.2h23.2a10.967 10.967 0 0 0-.932-3.602A9.552 9.552 0 0 0 322.45 34a10.595 10.595 0 0 0-4.733-2.278 15.285 15.285 0 0 0-3.217-.322 16.219 16.219 0 0 0-3.326.322q-2.122.444-3.746 1.504A9.447 9.447 0 0 0 306.4 34a10.913 10.913 0 0 0-3.481 5.82 14.111 14.111 0 0 0-.219 1.08ZM265 51.8v-1h-12.7a13.243 13.243 0 0 0-2.135.162q-1.137.186-2.06.586a6.432 6.432 0 0 0-1.305.752q-2 1.5-2 4.2t2.1 4.4q1.62 1.312 4.371 1.612A15.985 15.985 0 0 0 253 62.6a15.586 15.586 0 0 0 3.843-.45 11.401 11.401 0 0 0 4.807-2.5 9.711 9.711 0 0 0 3.31-6.801A13.452 13.452 0 0 0 265 51.8Zm320.3 0v-1h-12.7a13.243 13.243 0 0 0-2.135.162q-1.137.186-2.06.586a6.432 6.432 0 0 0-1.305.752q-2 1.5-2 4.2t2.1 4.4q1.62 1.312 4.371 1.612a15.985 15.985 0 0 0 1.729.088 15.586 15.586 0 0 0 3.843-.45 11.401 11.401 0 0 0 4.807-2.5 9.711 9.711 0 0 0 3.31-6.801 13.452 13.452 0 0 0 .04-1.049ZM91.718 15.433A8.691 8.691 0 0 0 94.9 16q3.5 0 5.8-2.2a7.146 7.146 0 0 0 1.935-3.153A9.142 9.142 0 0 0 103 8q0-3.6-2.3-5.8A7.652 7.652 0 0 0 97.733.422 9.156 9.156 0 0 0 94.9 0a10.397 10.397 0 0 0-.159.002A8.071 8.071 0 0 0 89.15 2.2a7.122 7.122 0 0 0-1.97 3.13A8.945 8.945 0 0 0 86.8 8a10.102 10.102 0 0 0 .057 1.091A7.309 7.309 0 0 0 89.15 13.8a7.969 7.969 0 0 0 2.568 1.633Z" font-size="12"/>
</svg>
