<svg xmlns="http://www.w3.org/2000/svg" xml:space="preserve" fill-rule="evenodd" stroke-linejoin="round" stroke-miterlimit="2" clip-rule="evenodd" viewBox="0 0 1562 549">
  <path d="M419.11 39.166v470.001H54.61V39.166h364.5Zm-8.5 8.5H63.111v453.002h347.5V47.666Z"/>
  <path fill="#fff" d="M0 94.343 352.08.004 473.723 453.99l-352.08 94.34z"/>
  <path d="M352.08.004 473.723 453.99l-352.08 94.34L0 94.343 352.08.004Zm-6.012 10.41L10.41 100.354 127.656 537.92l335.658-89.94L346.068 10.415Z"/>
  <path fill-rule="nonzero" d="M441.87 131.658h37.608l25.837 63.14h1.223l25.99-63.14h37.456v111.297h-29.506v-64.363h-.765l-24.766 63.445H497.06l-24.767-63.75h-.764v64.668h-29.66V131.658ZM581.177 242.955v-83.473h29.964v83.473h-29.964Zm14.982-92.034c-4.128 0-7.644-1.223-10.549-3.975-2.752-2.752-4.28-5.962-4.28-9.631 0-3.822 1.528-7.186 4.28-9.785 2.905-2.752 6.421-3.975 10.549-3.975 3.975 0 7.491 1.223 10.396 3.975 2.905 2.6 4.28 5.81 4.28 9.632s-1.375 7.032-4.28 9.784c-2.905 2.752-6.421 3.975-10.396 3.975ZM663.035 244.484c-9.02 0-16.816-1.835-23.237-5.504-6.421-3.516-11.466-8.561-14.83-14.982-3.363-6.421-5.045-13.912-5.045-22.474 0-8.561 1.682-16.205 5.045-22.626 3.364-6.421 8.409-11.466 14.83-14.982 6.42-3.67 14.217-5.504 23.237-5.504 8.103 0 15.288 1.529 21.25 4.434 5.963 3.057 10.55 7.185 13.913 12.536 3.21 5.35 4.892 11.619 4.892 18.957H675.42c-.306-3.058-.918-5.504-1.988-7.491-1.07-1.988-2.446-3.516-4.127-4.434-1.682-1.07-3.67-1.529-5.81-1.529-2.752 0-5.045.765-6.88 2.14-1.987 1.53-3.516 3.823-4.586 6.88-1.07 3.058-1.529 6.88-1.529 11.466 0 4.434.459 8.256 1.529 11.314 1.07 3.057 2.599 5.503 4.586 7.032 1.835 1.529 4.128 2.293 6.88 2.293 3.21 0 5.962-1.223 8.103-3.669 2.14-2.446 3.516-5.81 3.822-10.243h27.671c0 7.491-1.682 13.912-4.892 19.263-3.363 5.504-7.95 9.631-13.912 12.689-5.963 2.905-12.995 4.434-21.25 4.434ZM741.624 196.02v46.935H711.66V131.658h28.894v43.877h.765c1.987-5.351 5.045-9.479 9.478-12.537 4.434-3.057 9.632-4.586 15.747-4.586 5.962 0 11.007 1.376 15.44 4.128 4.281 2.599 7.645 6.268 10.09 11.007 2.447 4.74 3.67 10.09 3.67 16.205v53.203h-29.965V196.02c0-4.128-1.07-7.339-3.21-9.632-1.988-2.446-4.892-3.669-8.867-3.669-2.293 0-4.434.612-6.268 1.682-1.835 1.07-3.21 2.599-4.28 4.586-.918 1.988-1.53 4.28-1.53 7.033ZM830.6 244.33c-5.198 0-9.937-.917-14.065-2.751-4.128-1.682-7.338-4.434-9.632-7.95-2.293-3.516-3.363-8.103-3.363-13.606 0-4.587.764-8.562 2.293-11.772 1.529-3.21 3.67-5.962 6.421-7.95 2.905-2.14 6.115-3.669 9.784-4.74 3.67-1.222 7.797-1.834 12.078-2.14 4.586-.305 8.408-.764 11.16-1.375 2.905-.459 4.892-1.223 6.116-2.14 1.375-.918 1.987-2.294 1.987-3.823v-.305c0-2.14-.917-3.822-2.446-4.893-1.682-1.223-3.822-1.834-6.421-1.834-2.905 0-5.198.611-7.033 1.834-1.681 1.223-2.904 3.21-3.21 5.81H806.75c.306-5.045 1.988-9.784 4.893-14.065 2.751-4.28 7.032-7.644 12.536-10.243s12.536-3.975 20.792-3.975c5.962 0 11.313.764 16.052 2.14 4.74 1.376 8.714 3.364 12.078 5.81 3.363 2.446 5.809 5.35 7.644 8.714 1.681 3.363 2.599 6.88 2.599 10.702v57.177h-27.978v-11.772h-.611c-1.682 3.058-3.822 5.657-6.115 7.491-2.446 1.988-5.045 3.363-8.103 4.28-2.905.918-6.268 1.377-9.937 1.377Zm9.784-18.956c2.293 0 4.434-.46 6.421-1.53 1.988-.917 3.67-2.292 4.892-3.974 1.376-1.835 1.988-3.975 1.988-6.421v-6.88c-.765.306-1.682.612-2.6.918-.917.305-1.834.458-2.904.764-.917.306-1.987.459-3.058.611-1.07.306-2.14.46-3.363.612-2.446.459-4.28.917-5.81 1.835-1.375.764-2.445 1.834-3.21 2.904-.611 1.223-1.07 2.446-1.07 3.975 0 2.293.917 4.128 2.446 5.351 1.682 1.223 3.67 1.835 6.268 1.835ZM935.053 244.484c-8.867 0-16.663-1.682-23.084-5.198-6.421-3.364-11.314-8.256-14.83-14.677-3.363-6.42-5.045-14.218-5.045-23.085 0-8.714 1.682-16.205 5.045-22.626 3.516-6.421 8.409-11.466 14.677-15.135 6.42-3.516 13.912-5.35 22.473-5.35 6.268 0 12.078 1.07 17.123 3.057 5.045 1.834 9.478 4.739 13.147 8.408a37.597 37.597 0 0 1 8.256 13.454c1.987 5.35 2.905 11.313 2.905 18.04v6.726h-74.453V191.74h60.54l-14.064 3.363c0-3.363-.46-6.115-1.53-8.408-.917-2.446-2.445-4.128-4.433-5.35-1.834-1.224-4.28-1.835-7.185-1.835-2.905 0-5.351.611-7.186 1.834-1.987 1.223-3.516 2.905-4.433 5.35-1.07 2.294-1.529 5.046-1.529 8.41v12.077c0 3.21.612 6.115 1.682 8.561 1.223 2.446 2.905 4.28 5.045 5.657 2.14 1.376 4.586 1.987 7.491 1.987 1.987 0 3.822-.306 5.504-.917 1.681-.459 3.057-1.376 4.28-2.446 1.223-1.07 2.14-2.446 2.752-3.975h27.213c-.917 5.81-3.058 10.854-6.574 15.135-3.363 4.128-7.95 7.491-13.76 9.784-5.656 2.294-12.383 3.517-20.027 3.517ZM984.13 131.658h29.965v111.297H984.13zM1052.197 242.955V131.658h30.117v43.57h40.055v-43.57h30.117v111.297h-30.117v-43.418h-40.055v43.418h-30.117ZM1181.927 274.142c-3.363 0-6.726-.153-9.784-.764-3.21-.459-5.962-1.223-8.256-1.988l6.574-21.403.459.153c3.516 1.223 6.727 1.682 9.326 1.682 2.751-.153 4.433-1.376 5.503-3.67l.612-1.528-29.353-87.142h31.187l13.454 57.789h.917l13.76-57.789h31.493l-30.423 90.505c-1.53 4.587-3.67 8.714-6.574 12.384-2.905 3.669-6.574 6.573-11.313 8.56-4.74 2.141-10.55 3.211-17.582 3.211ZM1252.716 131.658h29.965v111.297h-29.965zM1317.605 244.33c-5.198 0-9.937-.917-14.065-2.751-4.128-1.682-7.338-4.434-9.631-7.95s-3.364-8.103-3.364-13.606c0-4.587.765-8.562 2.294-11.772 1.528-3.21 3.669-5.962 6.42-7.95 2.905-2.14 6.116-3.669 9.785-4.74 3.67-1.222 7.797-1.834 12.078-2.14 4.586-.305 8.408-.764 11.16-1.375 2.905-.459 4.892-1.223 6.115-2.14 1.376-.918 1.987-2.294 1.987-3.823v-.305c0-2.14-.917-3.822-2.446-4.893-1.681-1.223-3.822-1.834-6.42-1.834-2.905 0-5.199.611-7.033 1.834-1.682 1.223-2.905 3.21-3.21 5.81h-27.52c.307-5.045 1.988-9.784 4.893-14.065 2.752-4.28 7.033-7.644 12.536-10.243 5.504-2.599 12.536-3.975 20.792-3.975 5.962 0 11.313.764 16.052 2.14 4.74 1.376 8.715 3.364 12.078 5.81 3.363 2.446 5.81 5.35 7.644 8.714 1.682 3.363 2.599 6.88 2.599 10.702v57.177h-27.977v-11.772h-.612c-1.681 3.058-3.822 5.657-6.115 7.491-2.446 1.988-5.045 3.363-8.103 4.28-2.904.918-6.268 1.377-9.937 1.377Zm9.785-18.956c2.293 0 4.433-.46 6.42-1.53 1.988-.917 3.67-2.292 4.893-3.974 1.376-1.835 1.987-3.975 1.987-6.421v-6.88c-.764.306-1.681.612-2.599.918-.917.305-1.834.458-2.904.764-.918.306-1.988.459-3.058.611-1.07.306-2.14.46-3.363.612-2.447.459-4.281.917-5.81 1.835-1.376.764-2.446 1.834-3.21 2.904-.612 1.223-1.07 2.446-1.07 3.975 0 2.293.917 4.128 2.446 5.351 1.681 1.223 3.669 1.835 6.268 1.835ZM1411.969 196.02v46.935h-29.965v-83.473h29.66v16.053h.61c1.835-5.351 4.893-9.479 9.173-12.537 4.128-3.057 9.326-4.586 15.441-4.586 5.963 0 11.16 1.376 15.441 4.128 4.434 2.599 7.797 6.268 10.09 11.007 2.446 4.74 3.67 10.243 3.67 16.205v53.203h-29.965V196.02c0-4.128-1.07-7.339-3.21-9.632-2.14-2.446-5.046-3.669-8.868-3.669-2.293 0-4.433.612-6.268 1.682-1.834 1.07-3.21 2.599-4.28 4.586-.918 1.988-1.53 4.28-1.53 7.033ZM1507.518 244.025c-5.81 0-11.313-1.529-16.358-4.74-4.892-3.057-9.02-7.796-11.925-14.064-3.057-6.421-4.433-14.371-4.433-23.85 0-10.243 1.529-18.345 4.586-24.613 3.21-6.421 7.186-11.008 12.23-13.912 4.893-2.905 10.244-4.434 15.594-4.434 4.128 0 7.797.764 10.855 2.14 3.21 1.376 5.81 3.364 7.95 5.81 2.14 2.293 3.669 4.892 4.739 7.797h.459v-42.501h29.964v111.297h-29.659v-13.76h-.764c-1.223 2.905-2.752 5.351-4.892 7.645-2.14 2.14-4.74 3.974-7.797 5.197-3.058 1.376-6.574 1.988-10.549 1.988Zm11.16-23.085c2.752 0 5.046-.764 7.033-2.293 1.987-1.682 3.516-3.975 4.586-6.88 1.07-2.905 1.682-6.42 1.682-10.396 0-4.127-.611-7.797-1.682-10.701-1.07-2.905-2.599-5.198-4.586-6.88-1.987-1.529-4.28-2.293-7.033-2.293-2.751 0-5.197.764-7.032 2.293-1.987 1.682-3.516 3.975-4.434 6.88-1.07 2.904-1.528 6.574-1.528 10.701 0 3.975.458 7.491 1.528 10.55.918 2.904 2.447 5.197 4.434 6.726 1.835 1.529 4.28 2.293 7.032 2.293ZM476.832 438.808l-34.897-127.662h11.75l28.933 109.775h1.052l28.935-109.775h13.502l28.76 109.775h1.051l28.934-109.775h11.75l-34.897 127.662h-12.45l-29.636-108.197h-.701l-29.636 108.197h-12.45ZM612.565 438.808V311.146h74.001v10.522h-62.428v47.698h58.395v10.521h-58.395v48.4h63.656v10.521h-75.23ZM711.086 438.808V311.146h42.963c8.417 0 15.256 1.579 20.867 4.384 5.436 2.982 9.645 6.84 12.45 11.925 2.807 5.085 4.21 10.872 4.21 17.185 0 5.26-.877 9.82-2.806 13.678-1.754 3.683-4.209 6.84-7.19 9.119-3.157 2.28-6.488 4.033-10.346 5.085v.877c4.208.35 8.242 1.754 12.1 4.384 3.857 2.63 7.014 6.313 9.469 10.872 2.455 4.735 3.682 10.171 3.682 16.66 0 6.488-1.402 12.1-4.208 17.185-2.981 5.085-7.365 9.118-13.152 11.924-5.962 2.981-13.503 4.384-22.621 4.384h-45.418Zm11.573-10.521h33.845c9.82 0 17.185-2.105 21.744-6.489 4.735-4.384 7.19-9.82 7.19-16.484 0-4.91-1.228-9.294-3.507-13.151-2.455-4.034-5.787-7.19-9.996-9.47-4.208-2.28-9.118-3.507-14.905-3.507h-34.37v49.1Zm0-59.272h32.617c4.91 0 9.294-1.052 13.152-3.332 3.858-2.104 6.664-4.91 8.768-8.592 2.104-3.683 3.156-7.892 3.156-12.45 0-6.84-2.104-12.276-6.488-16.485-4.384-4.208-11.047-6.488-19.815-6.488h-31.39v47.347ZM900.278 438.808h-30.863v-10.521h30.162c11.048 0 20.166-2.105 27.531-6.313 7.365-4.384 12.977-10.522 16.66-18.588 3.682-8.067 5.61-17.536 5.61-28.76 0-10.872-1.928-20.341-5.435-28.232-3.683-7.892-8.944-14.03-15.958-18.238-7.19-4.384-15.782-6.488-26.128-6.488h-32.968v-10.522h33.67c12.099 0 22.445 2.63 31.213 7.716 8.592 5.086 15.256 12.275 19.815 21.745 4.735 9.47 7.015 20.868 7.015 34.02 0 13.502-2.455 24.9-7.19 34.545-4.56 9.47-11.398 16.835-20.517 21.92-8.943 5.086-19.815 7.716-32.617 7.716Zm-25.777-127.662v127.662h-11.574V311.146h11.574ZM983.203 438.808V311.146h74.001v10.522h-62.427v47.698h58.394v10.521h-58.394v48.4h63.655v10.521h-75.229ZM1119.777 440.912c-8.768 0-16.308-1.402-22.621-4.208-6.313-2.806-11.399-6.84-15.081-11.925-3.683-5.26-5.612-11.223-6.138-17.886h11.925c.35 5.085 2.104 9.294 4.91 12.801 2.98 3.507 6.663 6.138 11.398 7.891 4.735 1.93 9.82 2.806 15.607 2.806 6.313 0 12.1-1.052 17.01-3.157 4.91-2.28 8.768-5.26 11.749-9.118 2.806-3.858 4.208-8.242 4.208-13.328 0-4.384-1.052-8.066-3.331-10.872-2.28-2.981-5.437-5.436-9.47-7.365-4.033-2.104-8.592-3.858-13.853-5.26l-15.256-4.56c-9.996-2.981-17.712-7.015-23.323-12.275-5.436-5.261-8.242-12.1-8.242-20.342 0-6.839 1.754-12.801 5.436-18.062 3.683-5.26 8.768-9.294 15.081-12.275 6.313-2.806 13.327-4.384 21.043-4.384 8.067 0 14.906 1.578 21.043 4.384 6.138 2.98 11.048 7.014 14.555 12.1 3.682 5.085 5.611 10.697 5.787 17.185h-11.223c-.702-7.015-3.858-12.626-9.47-16.835-5.436-4.208-12.45-6.313-21.043-6.313-5.786 0-11.047 1.053-15.607 2.981-4.383 2.105-8.066 4.91-10.521 8.593-2.63 3.507-3.858 7.54-3.858 12.275 0 4.384 1.228 8.067 3.858 11.048 2.455 2.981 5.611 5.436 9.645 7.365a76.697 76.697 0 0 0 11.924 4.735l13.503 3.858c4.033 1.227 8.066 2.63 12.1 4.384 4.033 1.753 7.715 3.858 11.222 6.488 3.332 2.63 6.138 5.787 8.067 9.645 2.104 3.858 3.156 8.417 3.156 13.678 0 6.839-1.753 12.801-5.26 18.237-3.508 5.436-8.593 9.82-15.257 12.977-6.488 3.156-14.379 4.734-23.673 4.734ZM1186.588 311.146h11.574v127.662h-11.574zM1276.522 440.562c-11.223 0-20.868-2.806-29.285-8.067-8.417-5.436-14.906-12.976-19.465-22.797-4.735-9.82-7.014-21.393-7.014-34.545 0-13.328 2.28-25.077 7.014-34.897 4.735-9.82 11.048-17.36 19.29-22.621 8.241-5.436 17.71-8.067 28.583-8.067 7.014 0 13.327 1.052 19.114 3.157 5.787 2.28 10.872 5.26 15.256 9.118 4.384 3.858 8.067 8.242 10.873 13.328 2.805 5.085 4.734 10.346 5.786 15.957h-11.924c-1.228-4.208-2.806-8.242-5.085-11.924-2.28-3.683-5.086-7.014-8.418-9.82-3.156-2.806-7.014-4.91-11.223-6.664-4.384-1.578-9.118-2.28-14.379-2.28-8.242 0-15.782 2.105-22.27 6.489-6.664 4.208-11.75 10.521-15.607 18.763-3.858 8.067-5.787 17.887-5.787 29.46 0 11.399 1.929 21.044 5.787 29.286 3.857 8.066 9.118 14.38 15.782 18.588 6.663 4.384 14.38 6.663 22.972 6.663 7.716 0 14.73-1.753 20.692-5.26 5.962-3.508 10.522-8.418 14.029-14.906 3.332-6.488 4.91-14.204 4.91-23.147l3.858 1.227h-40.859v-10.521h48.4v10.521c0 10.872-2.105 20.167-6.49 28.058-4.383 8.066-10.52 14.028-18.236 18.412-7.716 4.384-16.484 6.489-26.304 6.489ZM1450.528 311.146v127.662h-11.398l-75.404-106.794h-1.052v106.794H1351.1V311.146h11.223l75.58 106.97h1.052v-106.97h11.573ZM1516.96 440.912c-8.767 0-16.307-1.402-22.62-4.208-6.313-2.806-11.399-6.84-15.081-11.925-3.683-5.26-5.612-11.223-6.138-17.886h11.925c.35 5.085 2.104 9.294 4.91 12.801 2.98 3.507 6.663 6.138 11.398 7.891 4.735 1.93 9.82 2.806 15.607 2.806 6.313 0 12.1-1.052 17.01-3.157 4.91-2.28 8.768-5.26 11.749-9.118 2.805-3.858 4.208-8.242 4.208-13.328 0-4.384-1.052-8.066-3.332-10.872-2.28-2.981-5.436-5.436-9.469-7.365-4.033-2.104-8.592-3.858-13.853-5.26l-15.256-4.56c-9.996-2.981-17.712-7.015-23.323-12.275-5.436-5.261-8.242-12.1-8.242-20.342 0-6.839 1.754-12.801 5.436-18.062 3.683-5.26 8.768-9.294 15.081-12.275 6.313-2.806 13.327-4.384 21.043-4.384 8.067 0 14.905 1.578 21.043 4.384 6.138 2.98 11.048 7.014 14.555 12.1 3.682 5.085 5.611 10.697 5.787 17.185h-11.223c-.702-7.015-3.858-12.626-9.47-16.835-5.436-4.208-12.45-6.313-21.043-6.313-5.787 0-11.047 1.053-15.607 2.981-4.384 2.105-8.066 4.91-10.521 8.593-2.63 3.507-3.858 7.54-3.858 12.275 0 4.384 1.227 8.067 3.858 11.048 2.455 2.981 5.611 5.436 9.645 7.365a76.697 76.697 0 0 0 11.924 4.735l13.503 3.858c4.033 1.227 8.066 2.63 12.1 4.384 4.033 1.753 7.715 3.858 11.222 6.488 3.332 2.63 6.138 5.787 8.067 9.645 2.104 3.858 3.156 8.417 3.156 13.678 0 6.839-1.753 12.801-5.26 18.237-3.508 5.436-8.593 9.82-15.257 12.977-6.488 3.156-14.38 4.734-23.673 4.734Z"/>
</svg>
