<svg xmlns="http://www.w3.org/2000/svg" xml:space="preserve" fill-rule="evenodd" stroke-linejoin="round" stroke-miterlimit="2" clip-rule="evenodd" viewBox="0 0 4664 1323">
  <path fill-rule="nonzero" d="M0 34.214h156.762l107.619 262.515h4.976L377.598 34.214h156.14v463.444h-123.17V229.545h-3.111l-103.264 264.38h-74.648L126.903 228.301h-3.733v269.357H0V34.214ZM580.393 497.658V149.919H705.43v347.739H580.393Zm62.208-383.197c-17.004 0-31.519-5.598-43.545-16.796-12.027-11.197-18.04-24.675-18.04-40.434 0-15.967 6.013-29.497 18.04-40.591C611.082 5.547 625.597 0 642.601 0c17.003 0 31.518 5.547 43.545 16.64 12.027 11.094 18.04 24.52 18.04 40.28 0 15.966-6.013 29.548-18.04 40.745-12.027 11.198-26.542 16.796-43.545 16.796ZM921.289 503.879c-37.739 0-70.035-7.517-96.888-22.551-26.852-15.033-47.381-35.976-61.585-62.829s-21.306-58.112-21.306-93.777c0-35.666 7.102-66.925 21.306-93.778 14.204-26.852 34.733-47.796 61.585-62.829 26.853-15.033 59.149-22.55 96.888-22.55 34.214 0 63.763 6.169 88.645 18.507 24.883 12.337 44.168 29.652 57.853 51.943 13.686 22.291 20.632 48.573 20.84 78.847H972.921c-1.037-12.234-3.732-22.498-8.087-30.792-4.354-8.295-10.057-14.567-17.107-18.818-7.05-4.251-15.241-6.376-24.572-6.376-10.99 0-20.528 3.11-28.615 9.331s-14.359 15.655-18.818 28.304c-4.458 12.649-6.687 28.512-6.687 47.589 0 18.869 2.229 34.732 6.687 47.588 4.459 12.856 10.731 22.55 18.818 29.082 8.087 6.532 17.625 9.798 28.615 9.798 13.686 0 25.039-5.081 34.059-15.241 9.02-10.161 14.256-24.365 15.707-42.612h115.706c-.415 30.689-7.413 57.386-20.995 80.092-13.582 22.705-32.763 40.227-57.542 52.565-24.779 12.338-54.38 18.507-88.801 18.507ZM1249.12 302.327v195.331h-125.036V34.214h120.06v182.267h3.732c7.88-22.187 20.943-39.553 39.191-52.098 18.247-12.546 40.227-18.818 65.939-18.818 24.469 0 45.774 5.599 63.918 16.796s32.244 26.593 42.301 46.189c10.057 19.595 15.085 42.145 15.085 67.65v221.458h-125.036V302.327c0-17.211-4.303-30.741-12.908-40.59-8.605-9.85-20.891-14.774-36.858-14.774-10.16 0-19.025 2.229-26.593 6.687-7.569 4.458-13.427 10.783-17.574 18.973-4.147 8.191-6.221 18.092-6.221 29.704ZM1619.88 503.257c-22.187 0-41.834-3.681-58.941-11.042s-30.43-18.507-39.968-33.437c-9.539-14.929-14.308-33.903-14.308-56.919 0-19.077 3.214-35.355 9.642-48.833 6.428-13.478 15.448-24.52 27.06-33.125 11.612-8.606 25.143-15.241 40.591-19.907 15.448-4.665 32.192-7.62 50.232-8.864 19.492-1.452 35.095-3.214 46.811-5.288 11.716-2.073 20.217-5.132 25.505-9.175 5.288-4.044 7.931-9.383 7.931-16.019v-1.244c0-8.916-3.421-15.811-10.264-20.684-6.843-4.873-15.655-7.309-26.438-7.309-12.027 0-21.772 2.592-29.237 7.776-7.465 5.184-12.027 13.167-13.686 23.95h-114.461c1.451-21.151 8.139-40.642 20.062-58.475 11.923-17.833 29.444-32.141 52.565-42.923 23.12-10.783 51.995-16.174 86.623-16.174 24.676 0 46.863 2.903 66.562 8.709 19.699 5.806 36.495 13.893 50.388 24.261 13.893 10.368 24.52 22.446 31.881 36.235 7.361 13.79 11.042 28.668 11.042 44.634v238.254h-116.95v-49.144h-2.488c-7.05 13.064-15.5 23.587-25.349 31.57-9.85 7.984-20.995 13.841-33.437 17.574-12.441 3.732-26.231 5.599-41.368 5.599Zm40.435-79.004c9.539 0 18.507-1.97 26.905-5.909 8.398-3.94 15.24-9.591 20.528-16.952 5.288-7.361 7.932-16.329 7.932-26.904v-28.616a303.366 303.366 0 0 1-10.576 3.733c-3.732 1.244-7.724 2.384-11.975 3.421a240.922 240.922 0 0 1-13.063 2.799c-4.458.83-9.176 1.659-14.152 2.489-9.746 1.451-17.678 3.888-23.795 7.309-6.117 3.421-10.627 7.569-13.53 12.441-2.903 4.873-4.354 10.316-4.354 16.33 0 9.746 3.369 17.159 10.109 22.239 6.739 5.08 15.396 7.62 25.971 7.62ZM2054.7 503.879c-37.117 0-69.102-7.102-95.955-21.306-26.853-14.204-47.433-34.681-61.74-61.43-14.308-26.749-21.462-58.89-21.462-96.421 0-35.873 7.206-67.236 21.617-94.089 14.411-26.852 34.784-47.744 61.119-62.673 26.334-14.93 57.438-22.395 93.311-22.395 26.334 0 50.128 4.095 71.382 12.286 21.255 8.19 39.45 20.01 54.587 35.458 15.137 15.448 26.749 34.162 34.836 56.142 8.087 21.98 12.131 46.863 12.131 74.649v28.615h-310.414v-68.428h251.939l-58.475 14.308c0-14.101-2.073-25.972-6.221-35.614-4.147-9.642-10.264-17.003-18.351-22.083-8.087-5.081-18.144-7.621-30.17-7.621-12.027 0-22.084 2.54-30.171 7.621-8.087 5.08-14.204 12.441-18.351 22.083-4.147 9.642-6.221 21.513-6.221 35.614v49.766c0 13.685 2.437 25.608 7.31 35.769 4.873 10.16 11.767 18.04 20.684 23.638 8.916 5.599 19.284 8.398 31.103 8.398 8.502 0 16.226-1.192 23.172-3.577 6.947-2.384 12.908-5.857 17.885-10.419 4.977-4.562 8.709-10.057 11.197-16.485h113.84c-3.94 24.053-13.116 44.945-27.527 62.674-14.412 17.729-33.488 31.414-57.231 41.056-23.742 9.643-51.684 14.464-83.824 14.464ZM2259.37 34.214h125.037v463.444H2259.37zM2543.03 497.658V34.214h125.658v181.023h166.716V34.214h125.658v463.444h-125.658V316.635h-166.716v181.023H2543.03ZM3083.61 627.671c-14.308.207-27.994-.778-41.057-2.955-13.064-2.177-24.468-5.132-34.214-8.864l27.371-88.957 1.866.622c14.93 4.977 27.942 7.258 39.035 6.843 11.094-.415 18.611-5.391 22.55-14.93l2.489-6.22-121.927-363.291h130.014l55.986 240.742h3.733l57.23-240.742h131.257l-126.902 376.976c-6.221 19.077-15.293 36.236-27.216 51.477-11.923 15.241-27.63 27.267-47.122 36.08-19.492 8.813-43.856 13.219-73.093 13.219ZM3378.47 34.214h125.037v463.444H3378.47zM3649.08 503.257c-22.187 0-41.834-3.681-58.941-11.042s-30.43-18.507-39.968-33.437c-9.539-14.929-14.308-33.903-14.308-56.919 0-19.077 3.214-35.355 9.642-48.833 6.428-13.478 15.448-24.52 27.06-33.125 11.612-8.606 25.143-15.241 40.591-19.907 15.448-4.665 32.192-7.62 50.232-8.864 19.492-1.452 35.095-3.214 46.811-5.288 11.716-2.073 20.217-5.132 25.505-9.175 5.288-4.044 7.931-9.383 7.931-16.019v-1.244c0-8.916-3.421-15.811-10.264-20.684-6.843-4.873-15.655-7.309-26.438-7.309-12.027 0-21.772 2.592-29.237 7.776-7.465 5.184-12.027 13.167-13.686 23.95h-114.461c1.451-21.151 8.139-40.642 20.062-58.475 11.923-17.833 29.444-32.141 52.565-42.923 23.12-10.783 51.995-16.174 86.623-16.174 24.676 0 46.863 2.903 66.562 8.709 19.699 5.806 36.495 13.893 50.388 24.261 13.893 10.368 24.52 22.446 31.881 36.235 7.361 13.79 11.042 28.668 11.042 44.634v238.254h-116.95v-49.144h-2.488c-7.05 13.064-15.5 23.587-25.349 31.57-9.85 7.984-20.995 13.841-33.437 17.574-12.441 3.732-26.231 5.599-41.368 5.599Zm40.435-79.004c9.538 0 18.507-1.97 26.905-5.909 8.398-3.94 15.24-9.591 20.528-16.952 5.288-7.361 7.931-16.329 7.931-26.904v-28.616a302.56 302.56 0 0 1-10.575 3.733c-3.732 1.244-7.724 2.384-11.975 3.421a240.922 240.922 0 0 1-13.063 2.799c-4.458.83-9.176 1.659-14.152 2.489-9.746 1.451-17.678 3.888-23.795 7.309-6.117 3.421-10.627 7.569-13.53 12.441-2.903 4.873-4.354 10.316-4.354 16.33 0 9.746 3.369 17.159 10.109 22.239 6.739 5.08 15.396 7.62 25.971 7.62ZM4042.23 302.327v195.331h-125.036V149.919h123.792v66.562h2.488c7.672-22.187 20.269-39.553 37.791-52.098 17.522-12.546 39.139-18.818 64.851-18.818 24.676 0 46.085 5.599 64.229 16.796s32.192 26.645 42.145 46.344c9.954 19.699 14.93 42.198 14.93 67.495v221.458h-125.036V302.327c0-17.211-4.355-30.741-13.064-40.59-8.709-9.85-20.943-14.774-36.702-14.774-10.161 0-19.025 2.229-26.594 6.687-7.568 4.458-13.426 10.783-17.573 18.973-4.147 8.191-6.221 18.092-6.221 29.704ZM4440.35 502.012c-24.675 0-47.433-6.48-68.272-19.439-20.84-12.96-37.48-32.607-49.921-58.942-12.442-26.334-18.663-59.511-18.663-99.531 0-42.094 6.532-76.256 19.596-102.487 13.063-26.23 29.963-45.463 50.699-57.697 20.735-12.234 42.508-18.351 65.317-18.351 17.211 0 32.296 2.955 45.256 8.864 12.96 5.91 23.846 13.842 32.659 23.795 8.812 9.953 15.396 20.839 19.751 32.659h1.866V34.214h125.036v463.444h-123.792v-57.231h-3.11c-4.77 11.82-11.612 22.343-20.529 31.57-8.916 9.228-19.699 16.537-32.348 21.928-12.648 5.392-27.163 8.087-43.545 8.087Zm46.034-95.799c11.404 0 21.254-3.369 29.548-10.108 8.294-6.74 14.671-16.226 19.129-28.46 4.458-12.234 6.687-26.749 6.687-43.545 0-17.211-2.229-31.985-6.687-44.323-4.458-12.338-10.835-21.824-19.129-28.46-8.294-6.635-18.144-9.953-29.548-9.953-11.405 0-21.151 3.318-29.238 9.953-8.087 6.636-14.256 16.122-18.506 28.46-4.251 12.338-6.377 27.112-6.377 44.323 0 17.003 2.126 31.674 6.377 44.011 4.25 12.338 10.419 21.773 18.506 28.305 8.087 6.531 17.833 9.797 29.238 9.797ZM145.322 1313.71 0 782.124h49.234l120.588 457.378h4.041l120.588-457.378h56.135l120.109 457.378h4.521L595.33 782.124h49.468L499.002 1313.71h-51.854L324.186 863.233h-3.568L197.65 1313.71h-52.328ZM710.919 1313.71V782.124h308.488v43.766H759.44v198.597h243.556v43.526H759.44v202.171h264.962v43.526H710.919ZM1121.44 1313.71V782.124h179.577c34.488 0 63.267 6.046 86.338 18.137 23.071 12.091 40.413 28.641 52.027 49.649 11.613 21.009 17.42 44.793 17.42 71.354 0 22.198-3.746 41.146-11.238 56.843-7.492 15.698-17.601 28.423-30.325 38.175-12.725 9.751-27.014 16.768-42.868 21.049v4.047c17.362 1.189 34.051 7.234 50.064 18.134 16.014 10.9 29.194 26.003 39.54 45.31 10.347 19.306 15.52 42.397 15.52 69.274 0 26.877-5.946 50.819-17.839 71.828-11.892 21.008-30.126 37.558-54.702 49.649-24.577 12.091-55.972 18.137-94.187 18.137H1121.44Zm48.52-43.526h140.807c41.069 0 71.394-9.138 90.976-27.413 19.581-18.275 29.372-41.167 29.372-68.675 0-20.217-4.876-38.551-14.628-55.004-9.751-16.452-23.487-29.554-41.206-39.306-17.72-9.751-38.431-14.627-62.134-14.627H1169.96v205.025Zm0-247.598h135.572c20.931 0 39.285-4.4 55.062-13.2 15.778-8.8 28.027-20.831 36.748-36.092 8.72-15.261 13.08-32.605 13.08-52.03 0-28.066-9.136-50.978-27.41-68.736-18.273-17.759-45.605-26.638-81.995-26.638H1169.96v196.696ZM1909.9 1313.71h-128.676v-43.526h125.822c45.744 0 83.978-8.959 114.701-26.878 30.723-17.918 53.813-43.605 69.272-77.062 15.458-33.456 23.187-73.335 23.187-119.637 0-45.823-7.512-85.205-22.535-118.146-15.024-32.942-37.222-58.272-66.596-75.992-29.374-17.719-65.625-26.579-108.753-26.579h-136.999v-43.766h139.853c50.739 0 94.146 10.565 130.22 31.694 36.075 21.129 63.705 51.455 82.891 90.976 19.185 39.522 28.778 86.793 28.778 141.813 0 55.738-9.811 103.546-29.433 143.424-19.623 39.878-48.145 70.461-85.566 91.748-37.422 21.287-82.811 31.931-136.166 31.931Zm-107.27-531.586v531.586h-48.521V782.124h48.521ZM2255.25 1313.71V782.124h308.488v43.766h-259.967v198.597h243.556v43.526h-243.556v202.171h264.962v43.526H2255.25ZM2824.42 1322.74c-36.153 0-67.529-5.966-94.129-17.897-26.599-11.931-47.51-28.581-62.732-49.948-15.223-21.367-23.824-46.083-25.805-74.149h49.708c1.825 21.012 8.762 38.792 20.813 53.34 12.05 14.547 27.807 25.587 47.271 33.118 19.465 7.531 41.089 11.297 64.874 11.297 26.56 0 50.187-4.46 70.88-13.379 20.692-8.92 36.964-21.386 48.816-37.4 11.851-16.013 17.777-34.684 17.777-56.012 0-18.077-4.717-33.16-14.151-45.251-9.434-12.092-22.456-22.299-39.066-30.624-16.611-8.325-35.975-15.698-58.095-22.12l-63.265-18.552c-41.701-12.286-74.048-29.45-97.041-51.491-22.993-22.042-34.49-50.147-34.49-84.315 0-28.541 7.632-53.674 22.895-75.398 15.263-21.724 36.015-38.691 62.256-50.901s55.654-18.315 88.239-18.315c32.982 0 62.179 6.105 87.589 18.315 25.411 12.21 45.608 28.84 60.592 49.889 14.985 21.05 23.071 45.013 24.261 71.889h-47.334c-2.932-29.493-15.933-52.96-39.004-70.403-23.071-17.443-52.248-26.164-87.531-26.164-24.498 0-46.181 4.262-65.049 12.785-18.868 8.524-33.594 20.258-44.178 35.203-10.584 14.945-15.876 32.01-15.876 51.194 0 18.474 5.232 33.954 15.697 46.441 10.466 12.487 23.824 22.674 40.076 30.562a336.836 336.836 0 0 0 50.064 19.564l55.896 16.172c16.809 4.916 33.676 10.982 50.602 18.198 16.926 7.215 32.485 16.293 46.676 27.234 14.191 10.941 25.588 24.32 34.191 40.136 8.603 15.817 12.905 34.785 12.905 56.905 0 28.222-7.354 53.67-22.061 76.346-14.708 22.675-35.797 40.632-63.268 53.872-27.471 13.239-60.472 19.859-99.003 19.859ZM3102.69 782.12h48.521v531.585h-48.521zM3477.3 1320.84c-46.302 0-86.855-11.179-121.661-33.536-34.805-22.358-61.879-53.972-81.223-94.842-19.344-40.871-29.015-88.935-29.015-144.193 0-55.656 9.692-103.939 29.076-144.848 19.385-40.91 46.241-72.543 80.569-94.901 34.328-22.357 73.968-33.536 118.921-33.536 29.017 0 55.596 4.559 79.738 13.677 24.141 9.118 45.369 21.724 63.683 37.817 18.314 16.094 33.378 34.566 45.192 55.417 11.815 20.85 19.901 43.01 24.261 66.478h-49.948c-4.839-17.76-11.916-34.35-21.231-49.769-9.315-15.419-20.87-28.996-34.665-40.73-13.795-11.734-29.611-20.912-47.45-27.532-17.838-6.621-37.698-9.931-59.58-9.931-34.488 0-65.447 8.999-92.877 26.997-27.43 17.998-49.094 44.003-64.991 78.015-15.896 34.012-23.845 74.961-23.845 122.846 0 47.409 7.968 88.081 23.904 122.015 15.936 33.933 37.837 59.939 65.704 78.015 27.867 18.076 59.68 27.114 95.438 27.114 32.663 0 61.422-7.215 86.277-21.646 24.855-14.43 44.318-35.103 58.39-62.019 14.072-26.915 21.108-59.124 21.108-96.626l15.698 4.995h-170.056v-43.526h201.691v43.526c0 45.273-9.117 84.419-27.351 117.438-18.234 33.02-43.406 58.489-75.515 76.407-32.109 17.919-68.857 26.878-110.242 26.878ZM4202.73 782.12v531.586h-47.807l-313.717-445.008h-4.521v445.008h-48.521V782.12h47.094l315.144 445.482h4.047V782.12h48.281ZM4479.34 1322.74c-36.153 0-67.529-5.966-94.128-17.897-26.6-11.931-47.511-28.581-62.733-49.948-15.222-21.367-23.824-46.083-25.805-74.149h49.708c1.825 21.012 8.763 38.792 20.813 53.34 12.05 14.547 27.807 25.587 47.272 33.118 19.464 7.531 41.088 11.297 64.873 11.297 26.561 0 50.187-4.46 70.88-13.379 20.692-8.92 36.964-21.386 48.816-37.4 11.851-16.013 17.777-34.684 17.777-56.012 0-18.077-4.717-33.16-14.151-45.251-9.434-12.092-22.456-22.299-39.066-30.624-16.61-8.325-35.975-15.698-58.095-22.12l-63.265-18.552c-41.701-12.286-74.048-29.45-97.041-51.491-22.993-22.042-34.489-50.147-34.489-84.315 0-28.541 7.631-53.674 22.894-75.398 15.263-21.724 36.015-38.691 62.256-50.901s55.654-18.315 88.239-18.315c32.983 0 62.179 6.105 87.59 18.315 25.41 12.21 45.607 28.84 60.592 49.889 14.984 21.05 23.071 45.013 24.26 71.889h-47.333c-2.932-29.493-15.934-52.96-39.005-70.403-23.071-17.443-52.248-26.164-87.531-26.164-24.498 0-46.181 4.262-65.049 12.785-18.868 8.524-33.594 20.258-44.178 35.203-10.584 14.945-15.876 32.01-15.876 51.194 0 18.474 5.232 33.954 15.698 46.441 10.465 12.487 23.823 22.674 40.075 30.562a336.879 336.879 0 0 0 50.064 19.564l55.896 16.172c16.809 4.916 33.677 10.982 50.603 18.198 16.926 7.215 32.484 16.293 46.675 27.234 14.191 10.941 25.588 24.32 34.191 40.136 8.604 15.817 12.905 34.785 12.905 56.905 0 28.222-7.353 53.67-22.061 76.346-14.707 22.675-35.797 40.632-63.268 53.872-27.471 13.239-60.472 19.859-99.003 19.859Z"/>
</svg>
